Coordinates
version=1
nRows=6
nColumns=36
inDegrees=yes

Units are S.I. units (second, meters, Newtons, ...)
If the header above contains a line with 'inDegrees', this indicates whether rotational values are in degrees (yes) or radians (no).

endheader
time	pelvis_tilt	pelvis_list	pelvis_rotation	pelvis_tx	pelvis_ty	pelvis_tz	hip_flexion_r	hip_adduction_r	hip_rotation_r	knee_angle_r	knee_angle_r_beta	ankle_angle_r	subtalar_angle_r	mtp_angle_r	hip_flexion_l	hip_adduction_l	hip_rotation_l	knee_angle_l	knee_angle_l_beta	ankle_angle_l	subtalar_angle_l	mtp_angle_l	lumbar_extension	lumbar_bending	lumbar_rotation	arm_flex_r	arm_add_r	arm_rot_r	elbow_flex_r	pro_sup_r	arm_flex_l	arm_add_l	arm_rot_l	elbow_flex_l	pro_sup_l
      0.00000000	      1.77128303	     -0.21439375	      0.96288751	     -0.91576060	      1.23873495	     -0.07417821	     -0.81962558	     -0.67052403	      3.63864987	      6.62135730	      0.11556449	      2.98551926	     -8.62184175	     -5.82225724	     -2.12189890	     -1.69674931	      1.70619696	      3.89705188	      0.06801639	      7.22122070	      0.11523905	     -5.82225724	    -12.16550321	      2.30293266	     -2.91744882	      8.35345592	     -9.94588847	     22.04982705	     28.11228723	     73.39549032	      3.73812919	     -8.48852521	     16.88227043	     34.07967641	     71.10534704
      0.00416670	      0.84901729	     -0.28360003	      1.22115285	     -0.91388201	      1.23770097	     -0.07534553	     -0.38434010	     -0.47304037	      4.51986646	      5.82650154	      0.10169164	      4.91072259	     -6.71337134	     -5.97067675	     -1.35959054	     -1.39588475	      2.91372819	      3.51318956	      0.06131673	      6.37413655	      0.37036689	     -5.97067675	    -10.14804672	      2.52934289	     -3.06258714	      7.95930996	     -9.97549155	     22.06933035	     27.94188841	     73.38621175	      3.61034478	     -8.28337713	     17.21028427	     34.09410349	     71.29327135
      0.00833330	      0.09065026	      0.11912846	      0.96800696	     -0.91371593	      1.23760183	     -0.07429321	      0.06080021	     -0.81426545	      4.23108096	      4.93467017	      0.08612624	      4.98340489	     -6.40211784	     -6.07572797	     -0.65746057	     -0.99843358	      2.81139907	      3.35885953	      0.05862316	      5.58517569	      0.18458534	     -6.07572797	     -9.36010566	      1.85671478	     -2.93157944	      7.70702347	     -9.88446660	     21.79124088	     28.62991735	     72.85877198	      3.44823469	     -8.59512147	     17.16336892	     34.58258086	     70.91577064
      0.01250000	      0.44620974	      0.30422059	      0.89890857	     -0.91327179	      1.23860932	     -0.07383322	     -0.61488959	     -1.02848166	      4.27926781	      4.34054050	      0.07575672	      4.97585936	     -6.44297347	     -6.07835959	     -1.31286888	     -0.78588067	      3.01851162	      2.83476720	      0.04947602	      5.30946914	      0.12584638	     -6.07835959	     -9.75185473	      1.55237285	     -2.86774094	      7.76054513	     -9.63261442	     21.44701292	     28.37244143	     72.89012276	      3.56894853	     -8.61339192	     17.08739302	     34.17750733	     71.03174151
      0.01666670	      0.66974897	      0.35677931	      0.97056737	     -0.91230813	      1.23856936	     -0.07369837	     -1.08614447	     -1.08662596	      3.82760857	      4.00253664	      0.06985744	      5.37545332	     -5.64910736	     -6.86635741	     -1.78213398	     -0.72775543	      3.41130815	      2.44617823	      0.04269386	      5.06739657	     -0.48723845	     -6.86635741	    -10.16892399	      1.45761567	     -2.09333247	      6.29582035	     -8.74267594	     12.92534777	     29.81088383	     82.46205536	      3.98116684	     -7.92161178	     14.73273627	     33.41903732	     80.25360298
      0.02083330	      0.89904936	      0.42691163	      0.94981239	     -0.91440888	      1.23954752	     -0.07427574	     -1.40691591	     -1.17213371	      3.79224276	      3.83962899	      0.06701417	      5.51323368	     -5.50795076	     -7.15178325	     -2.04330379	     -0.62504011	      3.59979230	      2.26761475	      0.03957734	      5.01049124	     -0.84381786	     -7.15178325	    -10.53836339	      1.40430137	     -2.09995676	      6.21082395	     -8.40959748	     11.36160355	     30.12097106	     83.07779175	      3.81790742	     -7.58842633	     12.79625962	     33.65542942	     80.77338423
